<svg width="100" height="100" xmlns="http://www.w3.org/2000/svg" preserveAspectRatio="none"><style>.b5ede1d6-c0cb-41cd-905c-88dcf3d15b4d {fill:#4D4D4D;fill-opacity:1;}.icon1b5ede1d6-c0cb-41cd-905c-88dcf3d15b4d {fill:#FF834F;fill-opacity:1;}.icon2b5ede1d6-c0cb-41cd-905c-88dcf3d15b4d {fill:#FF4949;fill-opacity:1;}.icon3-strb5ede1d6-c0cb-41cd-905c-88dcf3d15b4d {stroke:#FFAE78;stroke-opacity:1;}.icon3b5ede1d6-c0cb-41cd-905c-88dcf3d15b4d {fill:#FFAE78;fill-opacity:1;}.shapeStroke-strb5ede1d6-c0cb-41cd-905c-88dcf3d15b4d {stroke:#313131;stroke-opacity:1;}</style><g><title>background</title><rect x="-1" y="-1" width="382" height="112" id="background" fill="none"/></g><g><title>Layer 1</title><svg width="92.4093" height="89.5214" x="4" y="5.9893" preserveAspectRatio="none" viewBox="20 22.5 160 155" id="svg_01"><g id="svg_02"><g id="svg_03"><path d="m91.9,177.5l-71.9,-41.4l0,-61.5l71.9,41.4l0,61.5z" class="icon1b5ede1d6-c0cb-41cd-905c-88dcf3d15b4d" id="svg_08"/><path d="m91.9,177.5l0,-61.5l88.1,-50.9l0,60.9l-88.1,50.9" class="icon2b5ede1d6-c0cb-41cd-905c-88dcf3d15b4d" id="svg_07"/><path d="m20,74.6l89.6,-52.1l70.4,42.6l-88.1,50.9l-71.9,-41.4z" class="icon1b5ede1d6-c0cb-41cd-905c-88dcf3d15b4d" id="svg_06"/><path d="m44.4,75.3l44.8,26.4l66,-39.4l-44,-25.6l-66.8,38.6z" class="icon3b5ede1d6-c0cb-41cd-905c-88dcf3d15b4d" id="svg_05"/><path d="m111.2,36.7l0,51.9l44,-26.3l-44,-25.6z" class="icon2b5ede1d6-c0cb-41cd-905c-88dcf3d15b4d" id="svg_04"/></g></g></svg></g><g><title>background</title><rect fill="none" id="background" height="102" width="102" y="-1" x="-1"/></g></svg>